<svg width="340" height="30" viewBox="0 0 340 30" fill="none" xmlns="http://www.w3.org/2000/svg">
<path d="M2.46435 0.640741H8.28023L24.5942 18.9755V0.640741H30.7058V27.8965H24.8407L8.52666 9.51241V27.8965H2.46435V0.640741ZM41.3938 14.2933C41.3938 19.912 45.3861 23.3128 50.5119 23.3128C55.6378 23.3128 59.63 19.912 59.63 14.2933C59.63 8.67453 55.6378 5.27372 50.5119 5.27372C45.3861 5.27372 41.3938 8.67453 41.3938 14.2933ZM65.7909 14.2933C65.7909 22.8692 58.7921 28.5865 50.5119 28.5865C42.2317 28.5865 35.2329 22.8692 35.2329 14.2933C35.2329 5.71731 42.2317 8.51073e-06 50.5119 8.51073e-06C58.7921 8.51073e-06 65.7909 5.71731 65.7909 14.2933ZM68.3819 0.640741H96.722V6.16089H85.6324V27.8965H79.4715V6.16089H68.3819V0.640741ZM100.653 0.640741H125.396V6.21018H106.814V11.2375H123.523V16.8069H106.814V22.2285H126.086V27.8965H100.653V0.640741ZM130.688 0.640741H148.234C153.163 0.640741 156.662 3.49939 156.662 7.93523C156.662 9.90671 155.972 11.5825 154.543 12.5682C157.056 13.8497 158.535 16.0676 158.535 19.4191C158.535 24.1014 154.74 27.8965 149.565 27.8965H130.688V0.640741ZM136.849 6.16089V11.1389H148.431C149.762 11.1389 150.649 9.90671 150.649 8.67453C150.649 7.49164 150.008 6.16089 147.938 6.16089H136.849ZM136.849 16.5112V22.327H149.368C151.339 22.327 152.522 21.0949 152.522 19.4191C152.522 17.6448 151.29 16.5112 149.515 16.5112H136.849ZM168.414 14.2933C168.414 19.912 172.406 23.3128 177.532 23.3128C182.658 23.3128 186.65 19.912 186.65 14.2933C186.65 8.67453 182.658 5.27372 177.532 5.27372C172.406 5.27372 168.414 8.67453 168.414 14.2933ZM192.811 14.2933C192.811 22.8692 185.812 28.5865 177.532 28.5865C169.252 28.5865 162.253 22.8692 162.253 14.2933C162.253 5.71731 169.252 8.51073e-06 177.532 8.51073e-06C185.812 8.51073e-06 192.811 5.71731 192.811 14.2933ZM203.117 14.2933C203.117 19.912 207.109 23.3128 212.235 23.3128C217.361 23.3128 221.353 19.912 221.353 14.2933C221.353 8.67453 217.361 5.27372 212.235 5.27372C207.109 5.27372 203.117 8.67453 203.117 14.2933ZM227.514 14.2933C227.514 22.8692 220.515 28.5865 212.235 28.5865C203.955 28.5865 196.956 22.8692 196.956 14.2933C196.956 5.71731 203.955 8.51073e-06 212.235 8.51073e-06C220.515 8.51073e-06 227.514 5.71731 227.514 14.2933ZM232.053 0.640741H238.165V10.6953H246.1L252.951 0.640741H260.049L251.325 13.2582L260.689 27.8965H253.395L246.248 16.314H238.165V27.8965H232.053V0.640741Z" fill="#28282B"/>
<path d="M272.387 0.440668H278.548V22.127H297.327V27.6964H272.387V0.440668ZM301.122 0.440668H309.353L318.915 20.2048H319.161L329.117 0.440668H337.003V27.6964H330.941V8.62232H330.645L321.428 27.6964H316.253L307.382 8.62232H307.086V27.6964H301.122V0.440668Z" fill="#28282B"/>
<circle cx="263.922" cy="15.8899" r="3.66566" fill="#386FDE"/>
</svg>
