<svg width="235" height="21" viewBox="0 0 235 21" fill="none" xmlns="http://www.w3.org/2000/svg">
<path d="M1.69955 0.441827H5.7105L16.9615 13.0865V0.441827H21.1764V19.2389H17.1315L5.88046 6.56022V19.2389H1.69955V0.441827ZM28.5475 9.85735C28.5475 13.7323 31.3007 16.0777 34.8358 16.0777C38.3709 16.0777 41.1242 13.7323 41.1242 9.85735C41.1242 5.98237 38.3709 3.63699 34.8358 3.63699C31.3007 3.63699 28.5475 5.98237 28.5475 9.85735ZM45.373 9.85735C45.373 15.7718 40.5463 19.7148 34.8358 19.7148C29.1253 19.7148 24.2986 15.7718 24.2986 9.85735C24.2986 3.94291 29.1253 -5.75682e-05 34.8358 -5.75682e-05C40.5463 -5.75682e-05 45.373 3.94291 45.373 9.85735ZM47.16 0.441827H66.7048V4.24883H59.0568V19.2389H54.808V4.24883H47.16V0.441827ZM69.4161 0.441827H86.4797V4.28282H73.665V7.74991H85.188V11.5909H73.665V15.3299H86.9555V19.2389H69.4161V0.441827ZM90.1295 0.441827H102.23C105.629 0.441827 108.043 2.41331 108.043 5.47251C108.043 6.83215 107.567 7.98785 106.581 8.66767C108.315 9.55143 109.334 11.081 109.334 13.3924C109.334 16.6216 106.717 19.2389 103.148 19.2389H90.1295V0.441827ZM94.3783 4.24883V7.68193H102.366C103.284 7.68193 103.896 6.83215 103.896 5.98237C103.896 5.16659 103.454 4.24883 102.026 4.24883H94.3783ZM94.3783 11.387V15.3979H103.012C104.372 15.3979 105.188 14.5481 105.188 13.3924C105.188 12.1687 104.338 11.387 103.114 11.387H94.3783ZM116.147 9.85735C116.147 13.7323 118.901 16.0777 122.436 16.0777C125.971 16.0777 128.724 13.7323 128.724 9.85735C128.724 5.98237 125.971 3.63699 122.436 3.63699C118.901 3.63699 116.147 5.98237 116.147 9.85735ZM132.973 9.85735C132.973 15.7718 128.146 19.7148 122.436 19.7148C116.725 19.7148 111.899 15.7718 111.899 9.85735C111.899 3.94291 116.725 -5.75682e-05 122.436 -5.75682e-05C128.146 -5.75682e-05 132.973 3.94291 132.973 9.85735ZM140.081 9.85735C140.081 13.7323 142.834 16.0777 146.369 16.0777C149.904 16.0777 152.657 13.7323 152.657 9.85735C152.657 5.98237 149.904 3.63699 146.369 3.63699C142.834 3.63699 140.081 5.98237 140.081 9.85735ZM156.906 9.85735C156.906 15.7718 152.08 19.7148 146.369 19.7148C140.659 19.7148 135.832 15.7718 135.832 9.85735C135.832 3.94291 140.659 -5.75682e-05 146.369 -5.75682e-05C152.08 -5.75682e-05 156.906 3.94291 156.906 9.85735ZM160.037 0.441827H164.252V7.37601H169.724L174.449 0.441827H179.344L173.327 9.14354L179.786 19.2389H174.755L169.826 11.251H164.252V19.2389H160.037V0.441827Z" fill="#28282B"/>
<path d="M187.853 0.303887H192.102V15.26H205.053V19.101H187.853V0.303887ZM207.67 0.303887H213.347L219.941 13.9343H220.111L226.977 0.303887H232.416V19.101H228.235V5.94641H228.031L221.675 19.101H218.106L211.987 5.94641H211.783V19.101H207.67V0.303887Z" fill="#28282B"/>
<circle cx="182.015" cy="10.7861" r="2.52804" fill="#386FDE"/>
</svg>
