<svg width="17" height="25" viewBox="0 0 17 25" fill="none" xmlns="http://www.w3.org/2000/svg">
<path d="M8.45833 0C6.21504 0 4.06363 0.891143 2.47739 2.47739C0.891143 4.06363 0 6.21504 0 8.45833C0 11.3342 1.43792 13.8596 3.625 15.3942V18.125C3.625 18.4455 3.75231 18.7528 3.97891 18.9794C4.20552 19.206 4.51286 19.3333 4.83333 19.3333H12.0833C12.4038 19.3333 12.7111 19.206 12.9378 18.9794C13.1644 18.7528 13.2917 18.4455 13.2917 18.125V15.3942C15.4787 13.8596 16.9167 11.3342 16.9167 8.45833C16.9167 6.21504 16.0255 4.06363 14.4393 2.47739C12.853 0.891143 10.7016 0 8.45833 0ZM4.83333 22.9583C4.83333 23.2788 4.96064 23.5861 5.18725 23.8128C5.41385 24.0394 5.7212 24.1667 6.04167 24.1667H10.875C11.1955 24.1667 11.5028 24.0394 11.7294 23.8128C11.956 23.5861 12.0833 23.2788 12.0833 22.9583V21.75H4.83333V22.9583Z" fill="#386FDE"/>
</svg>
