<svg width="16" height="24" viewBox="0 0 16 24" fill="none" xmlns="http://www.w3.org/2000/svg">
<path d="M5.91129 13.9388C5.92167 13.8537 5.91396 13.7673 5.88865 13.6854C5.86334 13.6035 5.82101 13.5278 5.76444 13.4633C5.70786 13.3989 5.6383 13.3471 5.56033 13.3114C5.48235 13.2757 5.39771 13.2569 5.31196 13.2561H1.60479C1.50454 13.255 1.4061 13.2293 1.31814 13.1812C1.23017 13.1331 1.15538 13.0642 1.10035 12.9804C1.04532 12.8966 1.01174 12.8005 1.00256 12.7007C0.993392 12.6009 1.00891 12.5003 1.04775 12.4079L5.76871 1.37821C5.81347 1.2672 5.8902 1.17199 5.98916 1.10465C6.08812 1.03731 6.20485 1.00089 6.32454 1H11.7838C12.2103 1 12.5015 1.435 12.3457 1.83858L9.65712 8.74058C9.62021 8.83281 9.60632 8.93264 9.61666 9.03144C9.627 9.13024 9.66126 9.22504 9.71648 9.30762C9.77169 9.3902 9.8462 9.45809 9.93354 9.5054C10.0209 9.55272 10.1185 9.57804 10.2178 9.57917H13.6881C14.186 9.57917 14.4699 10.158 14.169 10.5615L5.14279 22.7005C5.06787 22.8008 4.912 22.7367 4.92529 22.6135L5.91129 13.9388Z" stroke="#386FDE" stroke-width="2" stroke-linecap="round" stroke-linejoin="round"/>
</svg>
