<svg width="25" height="25" viewBox="0 0 25 25" fill="none" xmlns="http://www.w3.org/2000/svg">
<path d="M0 3.32292C0 2.44162 0.350092 1.59643 0.97326 0.97326C1.59643 0.350092 2.44162 0 3.32292 0H18.4271C19.3084 0 20.1536 0.350092 20.7767 0.97326C21.3999 1.59643 21.75 2.44162 21.75 3.32292V10.9016C21.0076 10.4269 20.1907 10.0805 19.3333 9.87692V3.32292C19.3333 3.08256 19.2379 2.85206 19.0679 2.6821C18.8979 2.51215 18.6674 2.41667 18.4271 2.41667H3.32292C3.08256 2.41667 2.85206 2.51215 2.6821 2.6821C2.51215 2.85206 2.41667 3.08256 2.41667 3.32292V18.4271C2.41667 18.9273 2.82267 19.3333 3.32292 19.3333H9.87692C10.0823 20.2033 10.4327 21.019 10.9016 21.75H3.32292C2.44162 21.75 1.59643 21.3999 0.97326 20.7767C0.350092 20.1536 0 19.3084 0 18.4271V3.32292ZM24.1667 17.5208C24.1667 15.7582 23.4665 14.0679 22.2201 12.8215C20.9738 11.5752 19.2834 10.875 17.5208 10.875C15.7582 10.875 14.0679 11.5752 12.8215 12.8215C11.5752 14.0679 10.875 15.7582 10.875 17.5208C10.875 19.2834 11.5752 20.9738 12.8215 22.2201C14.0679 23.4665 15.7582 24.1667 17.5208 24.1667C19.2834 24.1667 20.9738 23.4665 22.2201 22.2201C23.4665 20.9738 24.1667 19.2834 24.1667 17.5208ZM18.125 18.125L18.1262 21.1495C18.1262 21.3097 18.0626 21.4634 17.9493 21.5767C17.8359 21.69 17.6823 21.7536 17.522 21.7536C17.3618 21.7536 17.2081 21.69 17.0948 21.5767C16.9815 21.4634 16.9179 21.3097 16.9179 21.1495V18.125H13.891C13.7308 18.125 13.5771 18.0613 13.4638 17.948C13.3505 17.8347 13.2868 17.6811 13.2868 17.5208C13.2868 17.3606 13.3505 17.2069 13.4638 17.0936C13.5771 16.9803 13.7308 16.9167 13.891 16.9167H16.9167V13.8958C16.9167 13.7356 16.9803 13.5819 17.0936 13.4686C17.2069 13.3553 17.3606 13.2917 17.5208 13.2917C17.6811 13.2917 17.8347 13.3553 17.948 13.4686C18.0613 13.5819 18.125 13.7356 18.125 13.8958V16.9167H21.1422C21.3024 16.9167 21.4561 16.9803 21.5694 17.0936C21.6827 17.2069 21.7464 17.3606 21.7464 17.5208C21.7464 17.6811 21.6827 17.8347 21.5694 17.948C21.4561 18.0613 21.3024 18.125 21.1422 18.125H18.125Z" fill="#386FDE"/>
</svg>
