<svg width="26" height="24" viewBox="0 0 26 24" fill="none" xmlns="http://www.w3.org/2000/svg">
<path d="M8.78121 5.11644L4.07161 3.86557L4.92808 0.714237C4.99722 0.46615 5.16158 0.255429 5.38536 0.127966C5.60915 0.000502471 5.87423 -0.0333779 6.12288 0.0337033L8.94555 0.79157C9.06855 0.824118 9.18392 0.880628 9.28503 0.95786C9.38615 1.03509 9.47102 1.13153 9.53479 1.24163C9.59855 1.35174 9.63995 1.47335 9.65661 1.59949C9.67327 1.72563 9.66487 1.85382 9.63188 1.9767L8.78121 5.11644ZM0.042546 19.338C-0.0106845 19.1646 -0.0140344 18.9797 0.0328793 18.8044L3.54961 5.80084L8.25728 7.0517L4.74055 20.0553C4.69335 20.231 4.59752 20.3898 4.46408 20.5135L1.64721 23.1177C1.61082 23.1508 1.5667 23.1742 1.5189 23.1859C1.4711 23.1975 1.42115 23.1969 1.37363 23.1842C1.3261 23.1715 1.28253 23.1471 1.24689 23.1132C1.21126 23.0793 1.18471 23.0369 1.16968 22.9901L0.042546 19.338ZM17.4 7.73224C13.05 7.73224 11.6 6.28224 11.6 1.93224C15.95 1.93224 17.4 3.38224 17.4 7.73224ZM14.6933 23.168C12.0447 23.574 8.64975 19.8697 7.88801 15.8213L9.60675 9.47224C10.3781 8.79557 11.3525 8.44177 12.3501 8.44177C13.4317 8.43605 14.4882 8.7664 15.3739 9.38717C15.6855 9.59758 16.0536 9.70839 16.4296 9.70494C16.8056 9.70149 17.1716 9.58393 17.4793 9.36784C18.2959 8.76321 19.2859 8.43841 20.3019 8.44177C21.7906 8.44177 23.4784 9.38717 24.2653 10.7637C27.2349 15.976 21.9569 23.7344 18.1869 23.1699C18.0144 23.1352 17.8482 23.0746 17.6939 22.9901C17.3042 22.7909 16.8729 22.687 16.4353 22.687C15.9977 22.687 15.5663 22.7909 15.1767 22.9901C15.0253 23.073 14.8624 23.133 14.6933 23.168Z" fill="#386FDE"/>
</svg>
