<svg width="27" height="27" viewBox="0 0 27 27" fill="none" xmlns="http://www.w3.org/2000/svg">
<path fill-rule="evenodd" clip-rule="evenodd" d="M6.46934 0C6.02182 0 5.59264 0.177775 5.2762 0.494216C4.95975 0.810657 4.78198 1.23984 4.78198 1.68736V7.31189C4.78198 7.7594 4.95975 8.18859 5.2762 8.50503C5.59264 8.82147 6.02182 8.99925 6.46934 8.99925H12.3751V13.7801H5.06321C4.31735 13.7801 3.60204 14.0764 3.07464 14.6038C2.54723 15.1312 2.25094 15.8465 2.25094 16.5924V20.4395C1.50008 20.7049 0.867204 21.2272 0.464188 21.9141C0.0611729 22.6009 -0.086033 23.4082 0.0485903 24.1931C0.183214 24.978 0.590997 25.6901 1.19986 26.2034C1.80873 26.7167 2.57947 26.9983 3.37585 26.9983C4.17223 26.9983 4.94297 26.7167 5.55183 26.2034C6.1607 25.6901 6.56848 24.978 6.70311 24.1931C6.83773 23.4082 6.69052 22.6009 6.28751 21.9141C5.88449 21.2272 5.25162 20.7049 4.50075 20.4395V16.5924C4.50075 16.4432 4.56001 16.3001 4.66549 16.1946C4.77097 16.0892 4.91404 16.0299 5.06321 16.0299H12.3751V20.4395C11.6242 20.7049 10.9914 21.2272 10.5883 21.9141C10.1853 22.6009 10.0381 23.4082 10.1727 24.1931C10.3074 24.978 10.7151 25.6901 11.324 26.2034C11.9329 26.7167 12.7036 26.9983 13.5 26.9983C14.2964 26.9983 15.0671 26.7167 15.676 26.2034C16.2849 25.6901 16.6926 24.978 16.8273 24.1931C16.9619 23.4082 16.8147 22.6009 16.4117 21.9141C16.0086 21.2272 15.3758 20.7049 14.6249 20.4395V16.0299H21.9368C22.086 16.0299 22.229 16.0892 22.3345 16.1946C22.44 16.3001 22.4992 16.4432 22.4992 16.5924V20.4395C21.7484 20.7049 21.1155 21.2272 20.7125 21.9141C20.3095 22.6009 20.1623 23.4082 20.2969 24.1931C20.4315 24.978 20.8393 25.6901 21.4482 26.2034C22.057 26.7167 22.8278 26.9983 23.6242 26.9983C24.4205 26.9983 25.1913 26.7167 25.8001 26.2034C26.409 25.6901 26.8168 24.978 26.9514 24.1931C27.086 23.4082 26.9388 22.6009 26.5358 21.9141C26.1328 21.2272 25.4999 20.7049 24.7491 20.4395V16.5924C24.7491 15.8465 24.4528 15.1312 23.9254 14.6038C23.398 14.0764 22.6827 13.7801 21.9368 13.7801H14.6249V8.99925H20.5307C20.9782 8.99925 21.4074 8.82147 21.7238 8.50503C22.0402 8.18859 22.218 7.7594 22.218 7.31189V1.68736C22.218 1.23984 22.0402 0.810657 21.7238 0.494216C21.4074 0.177775 20.9782 0 20.5307 0L6.46934 0Z" fill="#386FDE"/>
</svg>
